<?xml version="1.0" encoding="utf-8"?>
<!-- Generator: Adobe Illustrator 21.1.0, SVG Export Plug-In . SVG Version: 6.00 Build 0)  -->
<svg version="1.1" id="Layer_1" xmlns="http://www.w3.org/2000/svg" xmlns:xlink="http://www.w3.org/1999/xlink" x="0px" y="0px"
	 viewBox="0 0 393.5 88.3" style="enable-background:new 0 0 393.5 88.3;" xml:space="preserve">
<style type="text/css">
	.st0{fill:#2396DC;}
	.st1{fill:#7BC057;}
</style>
<g id="Layer_2">
	<path class="st0" d="M137.4,60.9h-14.7V27.4h14.1c6.9,0,10.7,4,10.7,9.8c0,3.8-2.7,6-3.6,6.7c1.4,0.9,4.2,2.5,4.2,7.2
		C147.9,57.5,143.4,60.9,137.4,60.9z M136.3,34.9h-5.1v5.4h5.1c2.2,0,2.9-1.4,2.9-2.7S138.5,34.9,136.3,34.9z M136.7,47.5h-5.6v6
		h5.6c2.2,0,3.1-1.6,3.1-2.9C139.8,49.4,138.9,47.5,136.7,47.5z"/>
	<path class="st0" d="M178.7,60.9l-1.6-5.1h-10.3l-1.6,5.1h-8.7l12.1-33.5h6.3L187,60.9H178.7z M172.2,40.1l-3.1,8.9h5.8L172.2,40.1
		z"/>
	<path class="st0" d="M216,60.9l-10.7-16.8v16.8H197V27.4h7.2l10.7,16.8V27.4h8.3v33.5H216z"/>
	<path class="st0" d="M254.9,61l-7.8-13.8l-2.9,3.3V61h-8.1V27.5h8.1v11.8l9.8-11.9h10.1l-11.4,13.8l11.8,19.9h-9.6V61z"/>
	<path class="st0" d="M274.2,60.9V27.4h8.1v33.5H274.2z"/>
	<path class="st0" d="M312.4,60.9l-6-12.5h-2.7v12.5h-8.1V27.4h13.2c7.4,0,11.4,5.2,11.4,10.9c0,4.5-2.9,7.4-5.4,8.7l7.2,13.9
		L312.4,60.9L312.4,60.9z M308.5,34.9h-4.7v6.7h4.7c2.2,0,3.6-1.6,3.6-3.4C312.1,36.5,310.6,34.9,308.5,34.9z"/>
	<path class="st0" d="M353,57.6c-2.4,2.4-5.2,3.6-9.2,3.6s-6.9-1.3-9.2-3.6c-3.4-3.4-3.4-7.8-3.4-13.4c0-5.6,0-10,3.4-13.4
		c2.4-2.4,5.2-3.6,9.2-3.6s6.9,1.3,9.2,3.6c3.4,3.4,3.4,7.8,3.4,13.4C356.4,49.8,356.4,54.2,353,57.6z M347,36.1
		c-0.5-0.7-1.8-1.4-3.3-1.4s-2.7,0.7-3.3,1.4c-0.7,0.9-1.3,2.2-1.3,8.3c0,6.2,0.5,7.2,1.3,8.1c0.5,0.7,1.8,1.4,3.3,1.4
		s2.7-0.7,3.3-1.4c0.7-0.9,1.3-2,1.3-8.1S347.7,37,347,36.1z"/>
	<path class="st0" d="M378,61.2c-5.1,0-9.2-0.9-12.7-4.3l5.2-5.2c1.8,1.8,4.9,2.4,7.4,2.4c3.3,0,4.9-1.1,4.9-3.1
		c0-0.7-0.2-1.4-0.7-2c-0.4-0.4-1.1-0.7-2.2-0.9l-4-0.5c-2.9-0.4-5.2-1.4-6.7-2.9c-1.6-1.6-2.4-3.8-2.4-6.7
		c0-6.2,4.5-10.7,12.3-10.7c4.9,0,8.5,1.1,11.2,4l-5.2,5.2c-1.8-1.8-3.6-2-6.3-2c-2.9,0-4,1.6-4,3.1c0,0.4,0.2,1.1,0.7,1.6
		c0.4,0.4,1.1,0.9,2.4,0.9l4,0.5c3.1,0.4,5.2,1.4,6.5,2.7c1.8,1.8,2.5,4.2,2.5,7.4C391,57.6,385,61.2,378,61.2z"/>
</g>
<g id="Layer_3">
	<g id="Layer_4_copy">
		<g>
			<path class="st1" d="M10.4,44.1c0-18.6,15-33.7,33.7-33.7c14.3,0,26.4,8.9,31.3,21.4l7.2-6.7C75.5,11,60.9,1.2,44,1.2
				C20.3,1.2,1.1,20.4,1.1,44.1c0,2.9,0.4,5.6,0.9,8.5l8.5-7.8C10.5,44.6,10.4,44.2,10.4,44.1z"/>
		</g>
	</g>
	<g id="Layer_6">
		<g>
			<path class="st0" d="M86.4,37.9"/>
			<path class="st0" d="M91.6,25.6l-6.3,0.5L54.2,53.7l-39.3-10L2.7,55.8c5.1,18.1,21.7,31.3,41.4,31.3c23.7,0,43.1-19.2,43.1-43.1
				c0-1.3,0-2.5-0.2-3.8l-9.6,8.9C75,65.4,60.9,77.9,44.1,77.9c-13.8,0-25.5-8.1-30.8-19.9l3.6-3.8l40.7,10.3l19.9-18.6l8.7-8.1
				l5.2-5.2L91.6,25.6z"/>
		</g>
	</g>
	<g id="Layer_8">
		<polygon class="st1" points="31.2,45.3 22.1,43 35.7,29.4 41.1,29 40.9,35 		"/>
		<polygon class="st1" points="50.9,49.7 41.7,47.5 60.8,27.8 66.3,27.6 66.1,33.4 		"/>
	</g>
</g>
</svg>
