<?xml version="1.0" encoding="utf-8"?>
<!-- Generator: Adobe Illustrator 21.1.0, SVG Export Plug-In . SVG Version: 6.00 Build 0)  -->
<svg version="1.1" id="Layer_1" xmlns="http://www.w3.org/2000/svg" xmlns:xlink="http://www.w3.org/1999/xlink" x="0px" y="0px"
	 viewBox="0 0 91 86" style="enable-background:new 0 0 91 86;" xml:space="preserve">
<style type="text/css">
	.st0{fill:#7BC057;}
	.st1{fill:#2396DC;}
</style>
<g id="Layer_3">
	<g id="Layer_4_copy">
		<g>
			<path class="st0" d="M9.4,43.1c0-18.6,15-33.7,33.7-33.7c14.3,0,26.4,8.9,31.3,21.4l7.2-6.7C74.5,10,59.9,0.2,43,0.2
				C19.3,0.2,0.1,19.4,0.1,43.1c0,2.9,0.4,5.6,0.9,8.5l8.5-7.8C9.5,43.6,9.4,43.2,9.4,43.1z"/>
		</g>
	</g>
	<g id="Layer_6">
		<g>
			<path class="st1" d="M85.4,36.9"/>
			<path class="st1" d="M90.6,24.6l-6.3,0.5L53.2,52.7l-39.3-10L1.7,54.8c5.1,18.1,21.7,31.3,41.4,31.3c23.7,0,43.1-19.2,43.1-43.1
				c0-1.3,0-2.5-0.2-3.8l-9.6,8.9C74,64.4,59.9,76.9,43.1,76.9c-13.8,0-25.5-8.1-30.8-19.9l3.6-3.8l40.7,10.3l19.9-18.6l8.7-8.1
				l5.2-5.2L90.6,24.6z"/>
		</g>
	</g>
	<g id="Layer_8">
		<polygon class="st0" points="30.2,44.3 21.1,42 34.7,28.4 40.1,28 39.9,34 		"/>
		<polygon class="st0" points="49.9,48.7 40.7,46.5 59.8,26.8 65.3,26.6 65.1,32.4 		"/>
	</g>
</g>
</svg>
